<?xml version="1.0" encoding="utf-8"?>
<!-- Generator: Adobe Illustrator 22.0.1, SVG Export Plug-In . SVG Version: 6.00 Build 0)  -->
<svg version="1.1" id="Layer_1" xmlns="http://www.w3.org/2000/svg" xmlns:xlink="http://www.w3.org/1999/xlink" x="0px" y="0px"
	 viewBox="0 0 774 718" style="enable-background:new 0 0 774 718;" xml:space="preserve">
<style type="text/css">
	.st0{stroke:#000000;stroke-width:5;stroke-miterlimit:10;}
</style>
<g>
	<rect x="63.3" y="583.5" width="405.6" height="63.7"/>
	<path d="M468.4,584v62.7H63.8V584H468.4 M469.4,583H62.8v64.7h406.6V583L469.4,583z"/>
</g>
<g>
	<rect x="394.5" y="466.7" transform="matrix(0.7071 -0.7071 0.7071 0.7071 -185.109 550.191)" width="354.1" height="63.7"/>
	<path d="M674.3,351.5l44.3,44.3L468.9,645.5l-44.3-44.3L674.3,351.5 M674.3,350.1L423.2,601.2l45.7,45.7L720,395.9L674.3,350.1
		L674.3,350.1z"/>
</g>
<line class="st0" x1="426" y1="539.6" x2="63.7" y2="539.6"/>
<line class="st0" x1="639.5" y1="324.9" x2="425.5" y2="538.9"/>
<path d="M306.7,288.6H127.1v166.6h200.2v50.1H67.4V43.1H317v50.1H127.1v146.1h179.6V288.6z"/>
<path d="M358.2,49.9C387,45.1,424.7,41,472.7,41c59,0,102.2,13.7,129.6,38.4c25.4,21.9,40.5,55.5,40.5,96.7
	c0,41.8-12.3,74.7-35.7,98.7c-31.5,33.6-83,50.7-141.3,50.7c-17.8,0-34.3-0.7-48-4.1v185.1h-59.7V49.9z M417.8,272.8
	c13,3.4,29.5,4.8,49.4,4.8c72,0,115.9-35,115.9-98.7c0-61-43.2-90.5-109-90.5c-26.1,0-45.9,2.1-56.2,4.8V272.8z"/>
<polyline points="499.4,649 735,649 735,413.4 "/>
</svg>
