<?xml version="1.0" encoding="utf-8"?>
<!-- Generator: Adobe Illustrator 19.1.0, SVG Export Plug-In . SVG Version: 6.00 Build 0)  -->
<svg version="1.1" id="Layer_1" xmlns="http://www.w3.org/2000/svg" xmlns:xlink="http://www.w3.org/1999/xlink" x="0px" y="0px"
	 viewBox="-273 365 64 64" style="enable-background:new -273 365 64 64;" xml:space="preserve">
<style type="text/css">
	.st0{fill:#FFFFFF;stroke:#808080;stroke-width:0.5;stroke-miterlimit:10;}
</style>
<path id="vimeo_5_" class="st0" d="M-223.6,389.4c-1.5,6-6.4,12.7-9.5,16.2s-7.6,9.2-12.5,8.4c0,0-3.8,0.2-6-8.8
	c-2.1-9-4-14.8-5.6-15.3c-1.6-0.4-3.6,1.6-3.6,1.6l-1.9-2.5l7.3-6.3c0,0,2.7-2.7,5.1-2.6s4,2.4,4.6,5.6s2.2,15.7,4.6,15.6
	c2.3-0.1,7.3-7.7,6.2-11.2c-1.1-3.5-5.5-1-5.5-1s2-7.9,8.7-9C-225.1,379.2-222.1,383.4-223.6,389.4z"/>
</svg>
