<?xml version="1.0" encoding="utf-8"?>
<!-- Generator: Adobe Illustrator 19.1.0, SVG Export Plug-In . SVG Version: 6.00 Build 0)  -->
<svg version="1.1" id="Layer_1" xmlns="http://www.w3.org/2000/svg" xmlns:xlink="http://www.w3.org/1999/xlink" x="0px" y="0px"
	 viewBox="-273 365 64 64" style="enable-background:new -273 365 64 64;" xml:space="preserve">
<style type="text/css">
	.st0{fill:#FFFFFF;stroke:#808080;stroke-width:0.5;stroke-miterlimit:10;}
</style>
<g id="linkedin">
	<path class="st0" d="M-239.2,395.1L-239.2,395.1C-239.2,395-239.2,395-239.2,395.1L-239.2,395.1L-239.2,395.1z"/>
	<path class="st0" d="M-225.5,380.6h-30.9c-1.2,0-2.1,1-2.1,2.1v28.6c0,1.2,1,2.1,2.1,2.1h30.9c1.2,0,2.1-1,2.1-2.1v-28.6
		C-223.5,381.6-224.5,380.6-225.5,380.6z M-247.5,407.1h-4.7V393h4.7V407.1z M-249.9,391.1L-249.9,391.1c-1.6,0-2.6-1.1-2.6-2.4
		c0-1.4,1.1-2.4,2.6-2.4c1.6,0,2.6,1.1,2.6,2.4C-247.1,390-248.1,391.1-249.9,391.1z M-229.6,407.1h-4.7v-7.5c0-1.9-0.7-3.2-2.4-3.2
		c-1.3,0-2.1,0.9-2.4,1.7c-0.1,0.3-0.1,0.7-0.1,1.1v7.9h-4.7c0,0,0.1-12.8,0-14.1h4.7v2c0.6-1,1.7-2.3,4.2-2.3c3.1,0,5.4,2,5.4,6.3
		V407.1L-229.6,407.1z"/>
</g>
</svg>
